<svg xmlns="http://www.w3.org/2000/svg" xmlns:xlink="http://www.w3.org/1999/xlink" version="1.1" x="0px" y="0px" enable-background="new 0 0 100 100" xml:space="preserve" viewBox="31.49 11.03 36.76 77.15"><path fill="#37ab2f" d="M31.552,51.986c0.004,0.012,0.008,0.023,0.013,0.036c0.002,0.005,0.001,0.011,0.003,0.017l15.067,35.536  c0.004,0.01,0.012,0.017,0.016,0.026c0.014,0.029,0.034,0.054,0.05,0.081c0.025,0.043,0.047,0.089,0.078,0.127  c0.004,0.006,0.006,0.013,0.011,0.018c0.017,0.021,0.04,0.034,0.058,0.053c0.026,0.026,0.053,0.049,0.082,0.072  c0.044,0.036,0.089,0.069,0.139,0.098c0.011,0.006,0.018,0.018,0.03,0.023c0.019,0.01,0.039,0.013,0.058,0.021  c0.022,0.01,0.044,0.018,0.067,0.026c0.024,0.008,0.046,0.019,0.071,0.025c0.086,0.023,0.174,0.038,0.261,0.038c0,0,0.001,0,0.001,0  c0,0,0,0,0,0s0,0,0,0c0.024,0,0.047-0.001,0.072-0.003c0.018-0.001,0.032-0.012,0.049-0.014c0.077-0.01,0.151-0.026,0.223-0.054  c0.015-0.005,0.03-0.003,0.045-0.009c0.012-0.005,0.019-0.016,0.03-0.021c0.019-0.009,0.037-0.017,0.056-0.026  c0.082-0.044,0.158-0.1,0.226-0.166c0.006-0.006,0.013-0.01,0.019-0.016c0.008-0.008,0.014-0.019,0.021-0.027  c0.017-0.018,0.027-0.039,0.042-0.059c0.037-0.048,0.077-0.093,0.105-0.148l15.36-29.832c0.004-0.008,0.003-0.016,0.007-0.023  c0.005-0.011,0.014-0.019,0.019-0.029l4.335-9.792c0.002-0.005,0.002-0.011,0.004-0.016c0.031-0.074,0.039-0.154,0.051-0.234  c0.008-0.05,0.029-0.098,0.029-0.147c0-0.044-0.018-0.087-0.023-0.131c-0.012-0.086-0.02-0.171-0.052-0.251  c-0.002-0.005-0.001-0.011-0.003-0.016L53.104,11.635c-0.016-0.036-0.045-0.06-0.064-0.094c-0.02-0.036-0.03-0.079-0.055-0.112  c-0.006-0.008-0.015-0.014-0.021-0.021c-0.006-0.009-0.01-0.019-0.018-0.027c-0.012-0.013-0.027-0.022-0.04-0.035  c-0.036-0.038-0.076-0.065-0.116-0.097c-0.031-0.023-0.053-0.056-0.086-0.075c-0.012-0.007-0.025-0.01-0.037-0.017  c-0.01-0.005-0.016-0.015-0.025-0.02c-0.002-0.001-0.004,0-0.006-0.002c-0.003-0.001-0.004-0.003-0.006-0.004  c-0.013-0.006-0.026-0.005-0.039-0.01c-0.045-0.021-0.092-0.029-0.14-0.042c-0.038-0.011-0.073-0.031-0.113-0.037  c-0.005,0-0.009-0.004-0.015-0.005c-0.012-0.001-0.021,0.003-0.032,0.002c-0.012-0.001-0.022-0.007-0.034-0.008  c-0.017-0.001-0.031,0.002-0.047,0.001c-0.048-0.001-0.095,0.013-0.143,0.019c-0.039,0.004-0.075-0.005-0.113,0.003  c-0.004,0.001-0.008,0.004-0.012,0.005c-0.015,0.004-0.028,0.01-0.043,0.014c-0.008,0.002-0.015,0.001-0.021,0.003  c-0.019,0.006-0.034,0.017-0.052,0.024c-0.011,0.004-0.022,0.002-0.032,0.006c-0.035,0.015-0.058,0.043-0.09,0.062  c-0.01,0.005-0.02,0.008-0.029,0.014c-0.027,0.016-0.061,0.023-0.086,0.042c-0.01,0.007-0.018,0.017-0.026,0.025  c-0.007,0.005-0.015,0.008-0.021,0.013c-0.015,0.013-0.024,0.03-0.039,0.044c-0.037,0.035-0.063,0.075-0.095,0.115  c-0.023,0.03-0.057,0.053-0.076,0.086c-0.008,0.012-0.01,0.026-0.017,0.038c-0.005,0.009-0.015,0.015-0.02,0.024l-0.007,0.012l0,0  l-0.002,0.003L35.934,41.402c-0.005,0.009-0.003,0.019-0.008,0.028c-0.005,0.01-0.013,0.015-0.018,0.025l-4.334,9.789  c-0.002,0.006-0.001,0.012-0.004,0.017c-0.019,0.045-0.021,0.095-0.034,0.142c-0.013,0.051-0.032,0.099-0.037,0.149  c-0.002,0.021-0.006,0.039-0.007,0.059c0,0.011-0.003,0.021-0.003,0.031c0,0.043,0.017,0.085,0.022,0.128  c0.007,0.055,0.008,0.108,0.023,0.161C31.542,51.949,31.545,51.968,31.552,51.986z M44.752,57.765l-10.955-6.503l16.539-33.274  L44.752,57.765z M52.435,17.427l9.25,39.063l-14.98,1.757L52.435,17.427z M44.574,59.985l1.546,21.251L34.6,54.064L44.574,59.985z   M48.295,83.563l-1.695-23.29l14.567-1.709L48.295,83.563z M63.205,54.23l-7.32-30.916l10.277,24.238L63.205,54.23z"/></svg>