<svg xmlns="http://www.w3.org/2000/svg" xmlns:xlink="http://www.w3.org/1999/xlink" version="1.1" x="0px" y="0px" viewBox="0 0 100 125" enable-background="new 0 0 100 100" xml:space="preserve"><path d="M50.742,96.029c0.391,0,0.745-0.228,0.908-0.582l20.924-45.515c0.122-0.266,0.122-0.57,0-0.836L51.65,3.582  C51.487,3.228,51.133,3,50.742,3s-0.745,0.228-0.908,0.582l-20.92,45.515c-0.122,0.266-0.122,0.57,0,0.836l20.92,45.515  C49.997,95.802,50.352,96.029,50.742,96.029z M50.742,49.015h-9.661l9.661-42.749l9.665,42.749H50.742z M50.742,50.015h9.666  l-9.666,42.749L41.08,50.015H50.742z M61.433,50.015h9.453L52.283,90.481L61.433,50.015z M61.433,49.015L52.283,8.548l18.603,40.467  H61.433z M40.056,49.015h-9.454L49.202,8.548L40.056,49.015z M40.056,50.015l9.146,40.467L30.602,50.015H40.056z"/><text x="0" y="115" fill="#000000" font-size="5px" font-weight="bold" font-family="'Helvetica Neue', Helvetica, Arial-Unicode, Arial, Sans-serif">Created by Lluisa Iborra</text><text x="0" y="120" fill="#000000" font-size="5px" font-weight="bold" font-family="'Helvetica Neue', Helvetica, Arial-Unicode, Arial, Sans-serif">from the Noun Project</text></svg>