<svg xmlns="http://www.w3.org/2000/svg" viewBox="0 0 96 120" x="0px" y="0px"><g><path d="M73.8643,47.4971l-25-43a1.0409,1.0409,0,0,0-1.7294,0l-25,43a1.0032,1.0032,0,0,0,0,1.0058l25,43a1.0006,1.0006,0,0,0,1.7294,0l25-43A1.0013,1.0013,0,0,0,73.8643,47.4971ZM58.7187,48.6229,50.3736,11.0718,71.3962,47.23Q65.0746,48.1859,58.7187,48.6229Zm-19.4168.1285L48,9.6091l8.6985,39.1423A156.0418,156.0418,0,0,1,39.3019,48.7514Zm17.4864,1.9979L48,86.7789l-8.7878-36.03q4.3918.2445,8.7883.25Q52.3958,50.999,56.7883,50.7493ZM37.2817,48.6229q-6.3524-.4371-12.6775-1.3927L45.6265,11.0718Zm-.1609,1.9934,8.27,33.9062L24.9119,49.2988Q31.0007,50.1952,37.1208,50.6163Zm21.7584,0q6.1171-.422,12.21-1.3177L50.6094,84.5226Z"/></g><text x="0" y="111" fill="#000000" font-size="5px" font-weight="bold" font-family="'Helvetica Neue', Helvetica, Arial-Unicode, Arial, Sans-serif">Created by Muhammad Tajudin</text><text x="0" y="116" fill="#000000" font-size="5px" font-weight="bold" font-family="'Helvetica Neue', Helvetica, Arial-Unicode, Arial, Sans-serif">from the Noun Project</text></svg>