<svg xmlns="http://www.w3.org/2000/svg" xmlns:xlink="http://www.w3.org/1999/xlink" version="1.1" x="0px" y="0px" enable-background="new 0 0 100 100" xml:space="preserve" viewBox="32.66 12.19 35.76 76.16"><path d="M32.687,52.484c0.002,0.006,0.004,0.012,0.006,0.018c0.001,0.003,0,0.006,0.001,0.009l15.067,35.536  c0.001,0.004,0.005,0.005,0.007,0.008c0.011,0.025,0.027,0.045,0.042,0.067c0.016,0.024,0.031,0.048,0.051,0.069  c0.021,0.022,0.045,0.04,0.07,0.059c0.013,0.009,0.023,0.019,0.037,0.026c0.009,0.006,0.015,0.015,0.024,0.02  c0.006,0.003,0.013,0.002,0.019,0.005c0.064,0.03,0.134,0.051,0.209,0.051h0l0,0l0,0c0.012,0,0.024,0,0.036-0.001  c0.031-0.002,0.057-0.017,0.086-0.024c0.024-0.006,0.049-0.004,0.073-0.015c0.005-0.002,0.008-0.007,0.014-0.009  c0.012-0.006,0.023-0.012,0.035-0.019c0.014-0.008,0.023-0.02,0.037-0.028c0.007-0.005,0.014-0.011,0.021-0.017  c0.022-0.018,0.047-0.031,0.066-0.052c0.022-0.023,0.035-0.053,0.052-0.08c0,0,0,0,0-0.001c0.006-0.011,0.019-0.015,0.025-0.026  l15.36-29.832c0.003-0.006,0.002-0.012,0.005-0.018c0.002-0.004,0.006-0.005,0.008-0.009l4.335-9.791  c0.001-0.002,0-0.005,0.002-0.008c0.018-0.04,0.021-0.084,0.028-0.129c0.003-0.021,0.012-0.04,0.012-0.062  c0.001-0.025-0.01-0.052-0.014-0.078c-0.006-0.038-0.009-0.077-0.023-0.113c-0.001-0.002-0.001-0.005-0.001-0.008L53.311,12.497  c-0.008-0.019-0.023-0.03-0.033-0.047c-0.01-0.019-0.016-0.04-0.027-0.058c-0.003-0.004-0.008-0.006-0.01-0.01  c-0.004-0.004-0.006-0.009-0.01-0.014c-0.006-0.007-0.014-0.011-0.02-0.017c-0.017-0.018-0.035-0.03-0.053-0.045  c-0.023-0.019-0.045-0.038-0.07-0.052c-0.004-0.002-0.006-0.006-0.01-0.008c-0.001-0.001-0.002,0-0.004-0.001  c0-0.001-0.001-0.002-0.002-0.002c-0.006-0.003-0.013-0.002-0.019-0.005c-0.019-0.009-0.036-0.013-0.056-0.019  c-0.031-0.011-0.062-0.021-0.096-0.023c-0.006-0.001-0.011-0.004-0.017-0.005c-0.009,0-0.017,0.002-0.026,0.002  c-0.021-0.001-0.041,0.006-0.062,0.008c0,0,0,0-0.001,0c-0.021,0.003-0.041-0.003-0.062,0.003c-0.004,0.001-0.006,0.003-0.009,0.004  c-0.005,0.001-0.008,0.003-0.013,0.004c0,0-0.001,0-0.002,0.001c-0.005,0.001-0.01,0-0.015,0.002  c-0.01,0.003-0.019,0.009-0.028,0.013c-0.004,0.002-0.01,0.001-0.014,0.003c-0.018,0.008-0.029,0.021-0.045,0.031  c-0.002,0-0.002,0.001-0.004,0.002c-0.018,0.01-0.039,0.016-0.057,0.028c-0.002,0.002-0.004,0.005-0.006,0.007  c-0.005,0.004-0.011,0.005-0.016,0.009c-0.008,0.007-0.012,0.017-0.02,0.023c-0.019,0.017-0.031,0.037-0.047,0.057  c-0.012,0.016-0.028,0.027-0.038,0.044c-0.003,0.006-0.005,0.013-0.008,0.018s-0.007,0.008-0.01,0.013l-0.002,0.004  c-0.001,0.001-0.001,0.001-0.001,0.002l-0.012,0.022L37.045,42.298c-0.002,0.005-0.002,0.01-0.004,0.015  c-0.002,0.004-0.007,0.007-0.009,0.012l-4.334,9.789c-0.001,0.002,0,0.005-0.001,0.008c-0.01,0.022-0.011,0.047-0.018,0.07  c-0.006,0.025-0.016,0.05-0.019,0.075c-0.001,0.011-0.002,0.02-0.003,0.03c0,0.005-0.001,0.009-0.001,0.014  c0,0.021,0.008,0.043,0.011,0.064c0.003,0.027,0.004,0.055,0.012,0.081C32.682,52.466,32.684,52.475,32.687,52.484z M45.81,59.245  l-12-7.122l18.116-36.449L45.81,59.245z M52.976,15.393l9.991,42.195l-16.182,1.898L52.976,15.393z M45.721,60.355l1.784,24.522  L34.21,53.523L45.721,60.355z M48.592,86.042L46.733,60.5l15.976-1.874L48.592,86.042z M63.727,56.459l-9.027-38.122l12.674,29.888  L63.727,56.459z"/></svg>