<svg xmlns="http://www.w3.org/2000/svg" xmlns:xlink="http://www.w3.org/1999/xlink" version="1.1" x="0px" y="0px" viewBox="0 0 100 125" enable-background="new 0 0 100 100" xml:space="preserve"><path d="M28.244,49.919c0.002,0.004,0.001,0.009,0.003,0.013l20.92,45.515c0.011,0.023,0.029,0.041,0.042,0.064  c0.004,0.007,0.005,0.016,0.009,0.022c0.006,0.01,0.007,0.021,0.013,0.03c0.014,0.021,0.033,0.035,0.048,0.055  c0.02,0.025,0.033,0.056,0.055,0.079c0.008,0.009,0.019,0.014,0.026,0.022c0.015,0.016,0.033,0.026,0.049,0.041  c0.023,0.021,0.043,0.045,0.068,0.063c0.013,0.01,0.025,0.019,0.039,0.027c0.033,0.022,0.068,0.039,0.104,0.058  c0.014,0.008,0.022,0.021,0.037,0.027c0.013,0.006,0.025,0.003,0.038,0.008c0.025,0.011,0.048,0.023,0.074,0.032  c0.021,0.007,0.041,0.012,0.062,0.017c0.008,0.003,0.014,0.009,0.022,0.011c0.072,0.017,0.145,0.023,0.216,0.023  c0.002,0,0.003,0.001,0.004,0.001h0.001h0.001c0.001,0,0.002-0.001,0.004-0.001c0.071,0,0.144-0.007,0.216-0.023  c0.009-0.002,0.015-0.008,0.022-0.01c0.021-0.006,0.042-0.012,0.062-0.018c0.026-0.009,0.049-0.021,0.074-0.032  c0.013-0.005,0.025-0.002,0.038-0.008c0.015-0.007,0.023-0.02,0.037-0.027c0.036-0.019,0.071-0.035,0.104-0.058  c0.014-0.009,0.026-0.018,0.039-0.027c0.025-0.019,0.045-0.042,0.068-0.063c0.016-0.015,0.034-0.026,0.049-0.041  c0.008-0.009,0.019-0.014,0.026-0.022c0.021-0.023,0.035-0.054,0.055-0.08c0.015-0.02,0.034-0.033,0.048-0.054  c0.003-0.006,0.004-0.012,0.007-0.018c0.007-0.011,0.009-0.024,0.015-0.035c0.013-0.022,0.031-0.04,0.042-0.064l20.925-45.515  c0.002-0.004,0.001-0.009,0.003-0.013C71.967,49.795,72,49.66,72,49.515s-0.033-0.281-0.089-0.405  c-0.002-0.004-0.001-0.009-0.003-0.013L50.983,3.583c-0.01-0.021-0.027-0.033-0.038-0.052C50.93,3.501,50.919,3.472,50.9,3.445  C50.884,3.42,50.864,3.4,50.846,3.376c-0.022-0.027-0.044-0.053-0.068-0.078c-0.025-0.025-0.052-0.046-0.079-0.069  c-0.022-0.019-0.043-0.038-0.067-0.055c-0.027-0.018-0.057-0.03-0.085-0.045c-0.02-0.011-0.032-0.029-0.053-0.039  c-0.012-0.005-0.024-0.003-0.036-0.008c-0.033-0.014-0.067-0.021-0.102-0.032c-0.021-0.006-0.037-0.021-0.06-0.026  c-0.008-0.002-0.015,0.001-0.022,0c-0.031-0.006-0.062-0.003-0.095-0.007c-0.035-0.004-0.069-0.012-0.104-0.012  c-0.033,0-0.065,0.008-0.1,0.012c-0.033,0.003-0.065,0-0.098,0.007c-0.008,0.001-0.015-0.001-0.022,0  c-0.021,0.005-0.037,0.02-0.058,0.026c-0.036,0.01-0.07,0.019-0.104,0.033c-0.012,0.005-0.023,0.003-0.035,0.008  c-0.021,0.009-0.033,0.028-0.053,0.039c-0.028,0.016-0.057,0.026-0.083,0.044c-0.025,0.017-0.046,0.036-0.068,0.055  c-0.028,0.022-0.055,0.044-0.08,0.07c-0.025,0.025-0.047,0.051-0.068,0.079c-0.019,0.022-0.038,0.042-0.054,0.066  c-0.02,0.028-0.031,0.058-0.047,0.087c-0.011,0.019-0.028,0.031-0.037,0.051l-20.92,45.515c-0.002,0.004-0.001,0.009-0.003,0.013  c-0.055,0.125-0.089,0.26-0.089,0.405S28.189,49.795,28.244,49.919z M50.075,48.515h-9.036l9.036-39.979l9.041,39.979H50.075z   M50.075,50.515h9.04l-9.04,39.979l-9.036-39.979H50.075z M61.166,50.515h8.273L53.158,85.93L61.166,50.515z M61.167,48.515  l-8.009-35.416l16.281,35.416H61.167z M38.988,48.515h-8.272l16.277-35.416L38.988,48.515z M38.989,50.515l8.004,35.415  L30.716,50.515H38.989z"/></svg>