<svg xmlns="http://www.w3.org/2000/svg" xmlns:xlink="http://www.w3.org/1999/xlink" version="1.1" x="0px" y="0px" enable-background="new 0 0 100 100" xml:space="preserve" viewBox="31.5 10.72 36.7 77.42"><path d="M31.535,46.79L47.73,87.83c0.004,0.01,0.014,0.014,0.019,0.023c0.012,0.026,0.023,0.052,0.041,0.076  s0.039,0.045,0.061,0.066c0.019,0.019,0.034,0.041,0.057,0.057c0.002,0.002,0.005,0.003,0.007,0.005  c0.007,0.005,0.014,0.006,0.021,0.01c0.008,0.005,0.012,0.013,0.02,0.017c0.014,0.008,0.03,0.005,0.044,0.012  c0.027,0.012,0.051,0.03,0.081,0.037c0.039,0.009,0.078,0.014,0.115,0.014c0,0,0.001,0,0.001,0l0,0c0,0,0,0,0,0l0,0c0,0,0,0,0,0  c0.057,0,0.112-0.01,0.165-0.028l0,0c0,0,0-0.001,0.001-0.001c0.003-0.001,0.005-0.003,0.008-0.004s0.006-0.001,0.009-0.002  c0.012-0.005,0.02-0.015,0.032-0.021c0.003-0.001,0.005-0.003,0.008-0.005c0.015-0.007,0.028-0.014,0.042-0.022  c0.019-0.013,0.038-0.023,0.055-0.038c0.007-0.006,0.014-0.011,0.021-0.017c0.013-0.013,0.021-0.027,0.032-0.04  c0.02-0.023,0.039-0.045,0.054-0.071c0.002-0.004,0.007-0.006,0.009-0.01l19.509-35.382c0.004-0.007,0.004-0.016,0.008-0.022  c0.008-0.017,0.014-0.032,0.02-0.049c0.01-0.024,0.014-0.049,0.02-0.074c0.004-0.021,0.01-0.042,0.012-0.064  c0-0.017,0-0.032-0.001-0.049c-0.001-0.024-0.006-0.048-0.011-0.073c-0.004-0.023-0.007-0.046-0.015-0.069  c-0.003-0.008-0.001-0.016-0.005-0.023L51.975,11.04c-0.004-0.008-0.01-0.013-0.014-0.021c-0.011-0.024-0.025-0.045-0.04-0.067  c-0.013-0.019-0.024-0.037-0.04-0.055c-0.01-0.012-0.018-0.023-0.028-0.033c-0.022-0.022-0.049-0.038-0.075-0.056  c-0.011-0.006-0.017-0.017-0.027-0.022c-0.006-0.004-0.014-0.003-0.02-0.007c-0.013-0.006-0.023-0.014-0.037-0.019  c-0.027-0.011-0.056-0.015-0.084-0.021c-0.023-0.005-0.046-0.012-0.069-0.014c-0.016-0.001-0.03,0-0.046,0.001  c-0.008,0-0.015-0.004-0.022-0.003c-0.003,0-0.005,0.002-0.007,0.002c-0.014,0.001-0.026,0.008-0.04,0.011  c-0.028,0.005-0.054,0.009-0.08,0.018c-0.007,0.003-0.013,0.001-0.02,0.004s-0.012,0.009-0.019,0.013  c-0.023,0.01-0.042,0.022-0.062,0.035c-0.022,0.015-0.044,0.028-0.064,0.047c-0.012,0.01-0.022,0.02-0.033,0.03  c-0.005,0.005-0.012,0.009-0.018,0.015c-0.011,0.013-0.016,0.031-0.025,0.046c-0.01,0.014-0.024,0.022-0.033,0.038L31.562,46.365  c-0.004,0.007-0.003,0.016-0.007,0.022c-0.008,0.017-0.014,0.032-0.02,0.049c-0.009,0.024-0.014,0.049-0.019,0.074  c-0.004,0.021-0.01,0.042-0.012,0.064c-0.001,0.017,0,0.032,0,0.049c0.001,0.024,0.006,0.048,0.01,0.073  c0.004,0.023,0.007,0.046,0.015,0.069C31.533,46.774,31.532,46.782,31.535,46.79z M37.859,55.854l13.342-42.011l3.311,44.651  L37.859,55.854z M54.445,59.496l-6.339,26.382L37.955,56.882L54.445,59.496z M36.748,56.46l2.527,7.218l-3.724-9.437L36.748,56.46z   M55.492,59.421l10.954-5.909L49.548,84.157L55.492,59.421z M55.499,58.28L52.25,14.466l14.826,37.569L55.499,58.28z M37.086,54.982  l-4.517-8.373L49.496,15.91L37.086,54.982z"/></svg>